<svg xmlns="http://www.w3.org/2000/svg" width="53.527" height="53.527" viewBox="0 0 53.527 53.527">
  <path id="Icon_awesome-github" data-name="Icon awesome-github" d="M17.9,43.663c0,.221-.248.4-.561.4-.356.033-.6-.144-.6-.4,0-.221.248-.4.561-.4C17.623,43.231,17.9,43.408,17.9,43.663Zm-3.356-.5c-.076.221.14.476.464.542a.5.5,0,0,0,.669-.221c.065-.221-.14-.476-.464-.576A.548.548,0,0,0,14.547,43.165Zm4.77-.188c-.313.077-.529.288-.5.542.032.221.313.365.637.288s.529-.288.5-.509S19.63,42.943,19.317,42.976ZM26.418.563C11.45.563,0,12.217,0,27.569,0,39.844,7.533,50.348,18.292,54.045c1.381.255,1.867-.62,1.867-1.339,0-.686-.032-4.472-.032-6.8,0,0-7.554,1.66-9.141-3.3,0,0-1.23-3.221-3-4.051,0,0-2.471-1.738.173-1.7a5.673,5.673,0,0,1,4.166,2.856c2.363,4.272,6.324,3.044,7.867,2.313a6.213,6.213,0,0,1,1.727-3.73C15.886,37.608,9.8,36.712,9.8,26.064a8.5,8.5,0,0,1,2.547-6.519,10.707,10.707,0,0,1,.281-7.515c2.255-.719,7.446,2.988,7.446,2.988a24.881,24.881,0,0,1,13.555,0s5.191-3.719,7.446-2.988a10.7,10.7,0,0,1,.281,7.515c1.727,1.959,2.784,3.487,2.784,6.519,0,10.681-6.356,11.533-12.389,12.231.993.874,1.835,2.535,1.835,5.136,0,3.73-.032,8.346-.032,9.253,0,.719.5,1.594,1.867,1.339C46.21,50.348,53.527,39.844,53.527,27.569A26.785,26.785,0,0,0,26.418.563ZM10.49,38.737c-.14.111-.108.365.076.576.173.177.421.255.561.111.14-.111.108-.365-.076-.576C10.878,38.671,10.63,38.593,10.49,38.737Zm-1.166-.9c-.076.144.032.321.248.432a.316.316,0,0,0,.464-.077c.076-.144-.032-.321-.248-.432C9.572,37.7,9.4,37.73,9.324,37.841Zm3.5,3.94c-.173.144-.108.476.14.686.248.255.561.288.7.111.14-.144.076-.476-.14-.686C13.285,41.637,12.961,41.6,12.821,41.781Zm-1.23-1.627c-.173.111-.173.4,0,.653s.464.365.6.255a.514.514,0,0,0,0-.686C12.044,40.121,11.763,40.01,11.59,40.154Z" transform="translate(0 -0.563)" fill="#fff"/>
</svg>
