<svg xmlns="http://www.w3.org/2000/svg" width="48.697" height="48.697" viewBox="0 0 48.697 48.697">
  <path id="Icon_awesome-instagram" data-name="Icon awesome-instagram" d="M24.349,14.1A12.485,12.485,0,1,0,36.831,26.586,12.464,12.464,0,0,0,24.349,14.1Zm0,20.6a8.117,8.117,0,1,1,8.115-8.117A8.131,8.131,0,0,1,24.349,34.7Zm15.9-21.113a2.912,2.912,0,1,1-2.912-2.912A2.905,2.905,0,0,1,40.253,13.59Zm8.267,2.956c-.185-3.9-1.076-7.356-3.933-10.2s-6.3-3.738-10.2-3.934c-4.02-.228-16.068-.228-20.087,0C10.41,2.594,6.956,3.485,4.1,6.332s-3.737,6.3-3.933,10.2c-.228,4.021-.228,16.071,0,20.092.185,3.9,1.076,7.356,3.933,10.2s6.3,3.738,10.2,3.934c4.02.228,16.068.228,20.087,0,3.9-.185,7.355-1.076,10.2-3.934s3.737-6.3,3.933-10.2c.228-4.021.228-16.06,0-20.081ZM43.328,40.941A8.217,8.217,0,0,1,38.7,45.57c-3.2,1.271-10.81.978-14.351.978S13.192,46.83,10,45.57A8.217,8.217,0,0,1,5.37,40.941C4.1,37.735,4.392,30.129,4.392,26.586s-.282-11.16.978-14.354A8.217,8.217,0,0,1,10,7.6c3.2-1.271,10.81-.978,14.351-.978S35.506,6.342,38.7,7.6a8.217,8.217,0,0,1,4.628,4.629c1.271,3.206.978,10.812.978,14.354S44.6,37.746,43.328,40.941Z" transform="translate(0.005 -2.238)" fill="#f551b9"/>
</svg>
