<svg xmlns="http://www.w3.org/2000/svg" width="44.653" height="44.653" viewBox="0 0 44.653 44.653">
  <path id="Icon_awesome-linkedin" data-name="Icon awesome-linkedin" d="M41.463,2.25H3.18A3.2,3.2,0,0,0,0,5.469V43.684A3.2,3.2,0,0,0,3.18,46.9H41.463a3.212,3.212,0,0,0,3.189-3.219V5.469A3.212,3.212,0,0,0,41.463,2.25ZM13.5,40.524H6.877V19.214h6.628v21.31ZM10.186,16.3a3.837,3.837,0,1,1,3.837-3.837A3.839,3.839,0,0,1,10.186,16.3ZM38.3,40.524H31.686V30.158c0-2.472-.05-5.651-3.439-5.651-3.449,0-3.977,2.691-3.977,5.472V40.524H17.652V19.214H24v2.91h.09a6.971,6.971,0,0,1,6.269-3.439c6.7,0,7.944,4.415,7.944,10.157Z" transform="translate(0 -2.25)" fill="#0e76a8"/>
</svg>
