<svg xmlns="http://www.w3.org/2000/svg" width="130.05" height="131.12" viewBox="0 0 130.05 131.12">
  <path id="Icon_awesome-js" data-name="Icon awesome-js" d="M0,2.25V133.37H130.05V2.25ZM70.773,104.512c0,12.761-7.431,18.585-18.259,18.585-9.783,0-15.443-5.093-18.346-11.268l9.957-6.058c1.916,3.424,3.658,6.322,7.867,6.322,4.006,0,6.561-1.58,6.561-7.756V62.454H70.773ZM99.686,123.1c-11.35,0-18.695-5.444-22.265-12.585l9.957-5.8c2.613,4.3,6.038,7.493,12.047,7.493,5.051,0,8.3-2.546,8.3-6.088,0-4.215-3.309-5.707-8.912-8.2L95.767,96.61c-8.825-3.776-14.66-8.546-14.66-18.585,0-9.249,7-16.273,17.882-16.273,7.78,0,13.353,2.722,17.359,9.863l-9.522,6.146c-2.09-3.776-4.354-5.268-7.867-5.268-3.571,0-5.835,2.283-5.835,5.268,0,3.688,2.264,5.18,7.519,7.493l3.048,1.317c10.392,4.478,16.227,9.073,16.227,19.375,0,11.063-8.651,17.151-20.233,17.151Z" transform="translate(0 -2.25)" fill="#f0db4f"/>
</svg>
