<svg xmlns="http://www.w3.org/2000/svg" width="130.05" height="131.12" viewBox="0 0 130.05 131.12">
  <path id="Icon_simple-adobexd" data-name="Icon simple-adobexd" d="M107.02.45H23.03C10.3.45,0,11.1,0,24.265v83.491c0,13.168,10.3,23.815,23.03,23.815H107.02c12.734,0,23.03-10.647,23.03-23.815V24.265C130.05,11.1,119.754.45,107.02.45Zm17.557,105.12a20.662,20.662,0,0,1-5.712,14.411,19.312,19.312,0,0,1-13.9,5.986H25.089c-10.837,0-19.67-9.134-19.67-20.34V26.394c0-11.207,8.833-20.34,19.67-20.34h79.818c10.863,0,19.67,9.107,19.67,20.34ZM51.424,61.807,66.6,91.954c.271.448.108.9-.325.9H56.843a1.061,1.061,0,0,1-1.138-.728c-3.468-7.4-6.99-14.793-10.621-22.75h-.108c-3.251,7.509-6.828,15.409-10.3,22.806a1.037,1.037,0,0,1-.975.616H24.764c-.542,0-.6-.448-.325-.784L39.286,62.76,24.926,33.174c-.325-.448,0-.784.325-.784h9.32a.852.852,0,0,1,.975.616c3.414,7.4,6.882,15.017,10.133,22.47h.108c3.143-7.4,6.611-15.073,9.971-22.414.271-.448.434-.728.975-.728h8.724c.434,0,.6.336.325.784Zm17.828,9.134c0-13.056,8.4-23.254,21.729-23.254A23.243,23.243,0,0,1,93.8,47.8V32.95a.552.552,0,0,1,.542-.56H102.9c.434,0,.542.168.542.448V84.277a41.258,41.258,0,0,0,.271,5.491c0,.336-.108.448-.433.616a31.394,31.394,0,0,1-13.872,3.25C77.651,93.691,69.252,86.182,69.252,70.941ZM93.8,56.6a7.956,7.956,0,0,0-3.143-.56c-6.828,0-11.6,5.435-11.6,14.457,0,10.31,4.877,14.457,11,14.457a9.918,9.918,0,0,0,3.739-.616V56.6Z" transform="translate(0 -0.45)" fill="#c008f6"/>
</svg>
