<svg xmlns="http://www.w3.org/2000/svg" width="196.21" height="58.986" viewBox="0 0 196.21 58.986">
  <g id="Grupo_37" data-name="Grupo 37" transform="translate(-138 -20.014)">
    <g id="Grupo_3" data-name="Grupo 3" transform="translate(-27 -22)">
      <text id="Portfólio" transform="translate(165 92)" fill="#ffa407" font-size="43" font-family="MongolianBaiti, Mongolian Baiti"><tspan x="0" y="0">Port</tspan><tspan y="0" fill="#fff">fólio</tspan></text>
    </g>
    <g id="Icon_ionic-md-rocket" data-name="Icon ionic-md-rocket" transform="translate(306.161 15.099) rotate(30)">
      <path id="Caminho_11" data-name="Caminho 11" d="M18,29.644a7.571,7.571,0,0,1-3.016-.766.547.547,0,0,0-.766.534L14.463,33a.275.275,0,0,0,.443.2l1.02-.773a.278.278,0,0,1,.4.07l1.441,2.257a.276.276,0,0,0,.464,0l1.441-2.257a.278.278,0,0,1,.4-.07l1.02.773a.275.275,0,0,0,.443-.2l.246-3.586a.544.544,0,0,0-.766-.534A7.6,7.6,0,0,1,18,29.644Z" transform="translate(2.449 7.592)" fill="#ffa407"/>
      <path id="Caminho_12" data-name="Caminho 12" d="M32.825,25.833l-4.192-4.378c0-14.088-8.14-20.33-8.14-20.33s-8.218,6.242-8.218,20.33L8.083,25.833a.751.751,0,0,0-.192.633L9.5,36.434a.666.666,0,0,0,1.031.481l5.86-4.048A6.611,6.611,0,0,0,20.5,34.651a6.255,6.255,0,0,0,4.026-1.783l5.86,4.048a.669.669,0,0,0,1.031-.481l1.616-9.978A.8.8,0,0,0,32.825,25.833ZM20.494,16.818a2.767,2.767,0,0,1-2.681-2.853,2.686,2.686,0,1,1,5.362,0A2.767,2.767,0,0,1,20.494,16.818Z" transform="translate(0)" fill="#ffa407"/>
    </g>
  </g>
</svg>
